<svg xmlns="http://www.w3.org/2000/svg" width="837" height="898" viewBox="0 0 837 898"><defs><linearGradient id="e" x1="0" x2="0" y1="0" y2="1"><stop stop-color="#6f98ff"/><stop offset="1" stop-color="#5686f6"/></linearGradient><linearGradient id="a" x1="0" x2="0" y1="0" y2="1"><stop stop-color="#f8f8f8"/><stop offset="1" stop-color="#ededed"/></linearGradient><linearGradient id="g" x1="0" x2="0" y1="0" y2="1"><stop stop-color="#fff"/><stop offset="1" stop-color="#f7f7f7"/></linearGradient><clipPath id="c"><rect width="837" height="814" y="84" rx="118"/></clipPath><filter id="f" width="1.08" height="1.1" x="-.03" y="-.04" color-interpolation-filters="sRGB"><feFlood flood-color="#283970" flood-opacity=".47" result="f"/><feGaussianBlur in="SourceAlpha" result="b1" stdDeviation="2"/><feOffset dx="4.54" dy="4.5" in="b1" result="o"/><feComposite in="f" in2="o" operator="in" result="sh"/><feComposite in="SourceGraphic" in2="sh"/></filter></defs><rect width="837" height="814" y="84" fill="url(#a)" rx="118"/><g clip-path="url(#c)"><path fill="url(#e)" d="M0 84h837v199H0z"/><path stroke="#4f79d6" stroke-width="2" d="M0 283h837" opacity=".5"/></g><path fill="#fff" d="M179 84v26c0 33 23 57 53 57s53-24 53-57V84h-12v25c0 26-18 45-41 45s-41-19-41-45V84Zm367 0v26c0 33 23 57 53 57s53-24 53-57V84h-12v25c0 26-18 45-41 45s-41-19-41-45V84Z" opacity=".95"/><rect width="74" height="145" x="194.93" fill="url(#e)" rx="37"/><rect width="74" height="145" x="561.91" y=".54" fill="url(#e)" rx="37"/><g filter="url(#f)"><rect width="100" height="100" x="282" y="365" fill="url(#g)" rx="18"/><rect width="100" height="100" x="456" y="365" fill="url(#g)" rx="18"/><rect width="100" height="100" x="631" y="365" fill="url(#g)" rx="18"/><rect width="100" height="100" x="112" y="536" fill="url(#g)" rx="18"/><rect width="100" height="100" x="282" y="536" fill="url(#g)" rx="18"/><rect width="100" height="100" x="456" y="536" fill="url(#e)" rx="18"/><rect width="100" height="100" x="631" y="536" fill="url(#g)" rx="18"/><rect width="100" height="100" x="112" y="706" fill="url(#g)" rx="18"/><rect width="100" height="100" x="282" y="706" fill="url(#g)" rx="18"/><rect width="100" height="100" x="456" y="706" fill="url(#g)" rx="18"/><rect width="100" height="100" x="631" y="706" fill="url(#g)" rx="18"/></g></svg>
